<svg xmlns="http://www.w3.org/2000/svg" width="76" height="89" viewBox="0 0 76 89">
  <g id="Group_137" data-name="Group 137" transform="translate(-0.179 -0.013)" opacity="0.6">
    <circle id="Ellipse_3" data-name="Ellipse 3" cx="5.5" cy="5.5" r="5.5" transform="translate(0.179 0.013)" fill="#23bfdd"/>
    <circle id="Ellipse_8" data-name="Ellipse 8" cx="5.5" cy="5.5" r="5.5" transform="translate(0.179 25.013)" fill="#23bfdd"/>
    <ellipse id="Ellipse_4" data-name="Ellipse 4" cx="6" cy="5.5" rx="6" ry="5.5" transform="translate(31.179 0.013)" fill="#23bfdd"/>
    <ellipse id="Ellipse_7" data-name="Ellipse 7" cx="6" cy="5.5" rx="6" ry="5.5" transform="translate(31.179 25.013)" fill="#23bfdd"/>
    <ellipse id="Ellipse_5" data-name="Ellipse 5" cx="6" cy="5.5" rx="6" ry="5.5" transform="translate(64.179 0.013)" fill="#23bfdd"/>
    <ellipse id="Ellipse_6" data-name="Ellipse 6" cx="6" cy="5.5" rx="6" ry="5.5" transform="translate(64.179 25.013)" fill="#23bfdd"/>
    <circle id="Ellipse_3-2" data-name="Ellipse 3" cx="5.5" cy="5.5" r="5.5" transform="translate(0.179 52.013)" fill="#23bfdd"/>
    <circle id="Ellipse_8-2" data-name="Ellipse 8" cx="5.5" cy="5.5" r="5.5" transform="translate(0.179 78.013)" fill="#23bfdd"/>
    <ellipse id="Ellipse_4-2" data-name="Ellipse 4" cx="6" cy="5.5" rx="6" ry="5.5" transform="translate(31.179 52.013)" fill="#23bfdd"/>
    <ellipse id="Ellipse_7-2" data-name="Ellipse 7" cx="6" cy="5.5" rx="6" ry="5.5" transform="translate(31.179 78.013)" fill="#23bfdd"/>
    <ellipse id="Ellipse_5-2" data-name="Ellipse 5" cx="6" cy="5.5" rx="6" ry="5.5" transform="translate(64.179 52.013)" fill="#23bfdd"/>
    <ellipse id="Ellipse_6-2" data-name="Ellipse 6" cx="6" cy="5.5" rx="6" ry="5.5" transform="translate(64.179 78.013)" fill="#23bfdd"/>
  </g>
</svg>
